<?xml version="1.0" encoding="UTF-8" standalone="no"?>
<svg
   width="243"
   height="572"
   version="1.1"
   id="svg2"
   sodipodi:docname="Toilets_unisex.svg"
   inkscape:version="1.3 (0e150ed6c4, 2023-07-21)"
   xmlns:inkscape="http://www.inkscape.org/namespaces/inkscape"
   xmlns:sodipodi="http://sodipodi.sourceforge.net/DTD/sodipodi-0.dtd"
   xmlns:xlink="http://www.w3.org/1999/xlink"
   xmlns="http://www.w3.org/2000/svg"
   xmlns:svg="http://www.w3.org/2000/svg">
  <defs
     id="defs2">
    <clipPath
       clipPathUnits="userSpaceOnUse"
       id="clipPath4">
      <use
         x="0"
         y="0"
         xlink:href="#g3"
         id="use4" />
    </clipPath>
  </defs>
  <sodipodi:namedview
     id="namedview2"
     pagecolor="#505050"
     bordercolor="#eeeeee"
     borderopacity="1"
     inkscape:showpageshadow="0"
     inkscape:pageopacity="0"
     inkscape:pagecheckerboard="0"
     inkscape:deskcolor="#505050"
     inkscape:zoom="17.902098"
     inkscape:cx="244.77578"
     inkscape:cy="302.31094"
     inkscape:window-width="1440"
     inkscape:window-height="878"
     inkscape:window-x="-6"
     inkscape:window-y="-6"
     inkscape:window-maximized="1"
     inkscape:current-layer="svg2" />
  <path
     d="m 103.20911,334.27797 5.97884,-224.57253 h 34.37196 c 32.43566,0.66024 51.79279,27.89844 57.28657,42.96472 l 40.1006,133.19065 c 8.1347,28.95816 -28.40842,40.84508 -37.23628,12.88936 L 167.9067,175.58469 h -11.45732 l 70.46042,214.35815 h -58.71875 v 161.83399 c 0.4583,29.40221 -50.58196,31.15654 -50.41011,1.89757 l -1.07885,-219.15547 z"
     id="path1"
     sodipodi:nodetypes="cccccccccccccc" />
  <circle
     cx="108.2742"
     cy="50.16077"
     r="46.545212"
     id="circle2" />
  <g
     id="g4"
     clip-path="url(#clipPath4)"
     transform="translate(-22)">
    <g
       inkscape:label="Clip"
       id="g3">
      <path
         d="m 80.86464,109.59537 c -35.78976,0 -58.71876,30.98756 -58.71876,61.58276 v 143.21573 c -0.3294,27.98432 39.966,27.98432 40.10064,0 V 182.63538 h 10.02512 v 363.76815 c -0.62156,37.98085 53.04736,36.89241 52.99008,0 V 334.44406 h 8.593 l -1.40433,-224.87628 z"
         id="path2"
         sodipodi:nodetypes="cscccccccccc" />
    </g>
  </g>
</svg>
