<?xml version="1.0" encoding="UTF-8" standalone="no"?>
<svg
   width="262"
   height="572"
   version="1.1"
   id="svg2"
   sodipodi:docname="Toilets_unisex.svg"
   inkscape:version="1.3 (0e150ed6c4, 2023-07-21)"
   xmlns:inkscape="http://www.inkscape.org/namespaces/inkscape"
   xmlns:sodipodi="http://sodipodi.sourceforge.net/DTD/sodipodi-0.dtd"
   xmlns="http://www.w3.org/2000/svg"
   xmlns:svg="http://www.w3.org/2000/svg">
  <defs
     id="defs2" />
  <sodipodi:namedview
     id="namedview2"
     pagecolor="#505050"
     bordercolor="#eeeeee"
     borderopacity="1"
     inkscape:showpageshadow="0"
     inkscape:pageopacity="0"
     inkscape:pagecheckerboard="0"
     inkscape:deskcolor="#505050"
     inkscape:zoom="12.658695"
     inkscape:cx="262.9023"
     inkscape:cy="299.24096"
     inkscape:window-width="1440"
     inkscape:window-height="878"
     inkscape:window-x="-6"
     inkscape:window-y="-6"
     inkscape:window-maximized="1"
     inkscape:current-layer="svg2" />
  <circle
     cx="130.9501"
     cy="46.58577"
     r="46.545212"
     id="circle1" />
  <path
     d="m 124.50539,388.15534 v 161.83399 c -0.24346,29.40221 -44.010414,29.40221 -44.397086,0 V 388.15534 H 22.821751 L 84.404788,171.89962 H 74.379644 L 38.57554,295.0651 C 29.524278,322.30474 -7.3109962,311.27714 1.3392857,282.17574 L 41.43986,148.98509 c 4.611576,-15.29544 23.8885,-42.30448 57.286572,-42.96472 h 30.075448 34.37196 c 32.43566,0.66024 51.79279,27.89844 57.28657,42.96472 l 40.1006,133.19065 c 8.1347,28.95816 -28.40842,40.84508 -37.23628,12.88936 l -35.8041,-123.16548 h -11.45732 l 63.01524,216.25572 H 180.3598 v 161.83399 c 0.4583,29.40221 -43.13678,29.25897 -42.96493,0 V 388.15534 Z"
     id="path1" />
</svg>
